<?xml version="1.0" encoding="utf-8"?>
<!-- Generator: Adobe Illustrator 24.2.0, SVG Export Plug-In . SVG Version: 6.00 Build 0)  -->
<svg version="1.1" id="Layer_1" xmlns="http://www.w3.org/2000/svg" xmlns:xlink="http://www.w3.org/1999/xlink" x="0px" y="0px"
	 viewBox="0 0 150.97 213.31" style="enable-background:new 0 0 150.97 213.31;" xml:space="preserve">
<style type="text/css">
	.st0{fill:#00AEEF;}
	.st1{fill:#FFFFFF;}
	.st2{fill:#FFFFFF;stroke:#FFFFFF;stroke-width:3;}
</style>
<rect x="0.17" y="0.17" class="st0" width="150.24" height="150.24"/>
<path class="st1" d="M98.31,123.52c0,10.93-9.92,19.84-22.15,19.84s-22.15-8.5-22.15-19.84c0-14.58,20.12-33.59,22.15-44.12
	C78.19,90.33,98.31,111.37,98.31,123.52z"/>
<path class="st2" d="M90.17,0v29.5c-0.33,11-4.5,20-8.83,29.17L76.17,70.5l-6-12.33c-4.5-9-8.5-17.83-9-28.67V0"/>
<path d="M11.81,165.35c-0.03-1.96-0.7-3.78-2.96-3.78c-2.91,0-3.19,3.81-3.19,5.95c0,2.42,0.28,5.53,3.4,5.53
	c1.93,0,2.83-1.62,3.06-3.32l4.02,0.26c-0.44,4.04-3.22,6.44-7.28,6.44c-5.25,0-7.8-4.27-7.8-9.09c0-4.89,2.63-9.09,7.93-9.09
	c4.43,0,6.69,2.57,7.16,6.82L11.81,165.35z"/>
<path d="M32.46,168.73v7.44h-4.12v-7.44l-5.59-10.22h4.79l3.4,6.72l3.35-6.72H38L32.46,168.73z"/>
<path d="M50.25,176.17h-4.12v-17.66h6.64c1.73,0,3.29,0,4.76,1c1.49,1.06,2.29,2.57,2.29,4.4c0,1.67-0.59,3.37-1.9,4.48
	c-1.52,1.26-3.14,1.24-5.02,1.24h-2.65V176.17z M52.57,166.41c0.98,0,1.8,0,2.52-0.77c0.39-0.44,0.57-1,0.57-1.57
	c0-0.7-0.28-1.42-0.85-1.85c-0.64-0.49-1.49-0.49-2.27-0.49h-2.29v4.68H52.57z"/>
<path d="M72.73,176.17h-4.12v-17.66h7.44c1.57,0,3.17,0.03,4.53,0.9c1.44,0.95,2.24,2.68,2.24,4.4c0,2.01-1.16,3.86-3.06,4.56
	l3.27,7.8h-4.58l-2.7-6.98h-3.01V176.17z M72.73,166.15H75c0.85,0,1.78,0.08,2.52-0.36c0.67-0.41,1.03-1.24,1.03-2.01
	c0-0.7-0.41-1.44-1-1.8c-0.69-0.44-1.88-0.33-2.65-0.33h-2.16V166.15z"/>
<path d="M96.08,161.93v3.58h6.69v3.32h-6.69v3.91h8.5v3.42H91.97v-17.66h12.61v3.42H96.08z"/>
<path d="M122.78,163.55c-0.51-1.49-1.47-2.08-3.04-2.08c-1.11,0-2.45,0.28-2.45,1.65c0,1.29,1.54,1.6,2.55,1.78
	c1.44,0.31,3.37,0.67,4.61,1.49c1.44,0.95,2.32,2.42,2.32,4.17c0,1.72-0.82,3.37-2.19,4.43c-1.42,1.11-3.35,1.44-5.12,1.44
	c-3.32,0-6.33-1.44-7.13-4.89l3.81-0.88c0.52,1.85,1.85,2.5,3.68,2.5c1.18,0,2.75-0.44,2.75-1.9c0-1.47-2.01-1.75-3.09-1.98
	c-3.14-0.64-6.23-1.57-6.23-5.43c0-1.65,0.64-3.09,1.9-4.14c1.29-1.08,2.81-1.44,4.43-1.44c3.09,0,5.61,1.08,6.69,4.14
	L122.78,163.55z"/>
<path d="M145.18,163.55c-0.52-1.49-1.47-2.08-3.04-2.08c-1.11,0-2.45,0.28-2.45,1.65c0,1.29,1.54,1.6,2.55,1.78
	c1.44,0.31,3.37,0.67,4.61,1.49c1.44,0.95,2.32,2.42,2.32,4.17c0,1.72-0.82,3.37-2.19,4.43c-1.42,1.11-3.35,1.44-5.12,1.44
	c-3.32,0-6.33-1.44-7.13-4.89l3.81-0.88c0.52,1.85,1.85,2.5,3.68,2.5c1.18,0,2.75-0.44,2.75-1.9c0-1.47-2.01-1.75-3.09-1.98
	c-3.14-0.64-6.23-1.57-6.23-5.43c0-1.65,0.64-3.09,1.9-4.14c1.29-1.08,2.81-1.44,4.43-1.44c3.09,0,5.61,1.08,6.69,4.14
	L145.18,163.55z"/>
<path d="M5.12,184.26c2.55,0,4.74,0.15,6.67,1.98c1.91,1.8,2.73,4.25,2.73,6.8c0,2.37-0.72,4.66-2.29,6.44
	c-1.75,1.93-3.91,2.45-6.41,2.45H0v-17.66H5.12z M4.12,198.6h1.39c1.72,0,2.83-0.33,3.78-1.88c0.69-1.13,0.98-2.5,0.98-3.81
	c0-1.39-0.41-2.88-1.26-3.99c-0.95-1.24-2.01-1.42-3.48-1.42H4.12V198.6z"/>
<path d="M20.47,201.92h-4.12v-17.66h4.12V201.92z"/>
<path d="M37.77,201.92h-4.45l-1.08-3.63h-5.71l-1.11,3.63h-3.63l5.66-17.66h4.79L37.77,201.92z M31.28,195.04l-1.88-6.2l-1.88,6.2
	H31.28z"/>
<path d="M44.67,195.76v-3.29h7.26v9.45h-1.88l-0.59-2.03c-1.31,1.6-2.75,2.29-4.81,2.29c-5.17,0-7.31-4.3-7.31-8.93
	c0-4.79,2.34-9.24,7.67-9.24c3.81,0,6.38,2.32,6.92,6.05l-3.91,0.54c-0.18-1.78-1.13-3.27-3.11-3.27c-2.91,0-3.35,3.78-3.35,5.97
	c0,2.29,0.64,5.53,3.53,5.53c1.8,0,3.04-1.26,2.93-3.06H44.67z"/>
<path d="M67.97,201.92h-3.53l-6.77-11.87h-0.1v11.87h-3.19v-17.66h4.45l5.89,10.37h0.05v-10.37h3.19V201.92z"/>
<path d="M71.45,199.39c-1.29-1.83-1.85-4.12-1.85-6.33c0-4.68,2.34-9.06,7.57-9.06c2.34,0,4.2,0.77,5.61,2.7
	c1.26,1.72,1.9,4.22,1.9,6.36c0,2.01-0.54,4.45-1.67,6.13c-1.36,2.01-3.45,2.99-5.84,2.99C74.77,202.17,72.84,201.35,71.45,199.39z
	 M74.48,189.38c-0.41,1.06-0.57,2.57-0.57,3.68c0,2.21,0.33,5.74,3.24,5.74c1.42,0,2.19-0.69,2.65-2.01
	c0.41-1.08,0.54-2.55,0.54-3.71c0-1.29-0.13-2.81-0.64-3.99c-0.52-1.18-1.26-1.73-2.55-1.73C75.74,187.37,74.97,188.09,74.48,189.38
	z"/>
<path d="M95.75,189.3c-0.51-1.49-1.47-2.08-3.04-2.08c-1.11,0-2.45,0.28-2.45,1.65c0,1.29,1.54,1.6,2.55,1.78
	c1.44,0.31,3.37,0.67,4.61,1.49c1.44,0.95,2.32,2.42,2.32,4.17c0,1.72-0.82,3.37-2.19,4.43c-1.42,1.11-3.35,1.44-5.12,1.44
	c-3.32,0-6.33-1.44-7.13-4.89l3.81-0.88c0.51,1.85,1.85,2.5,3.68,2.5c1.18,0,2.75-0.44,2.75-1.9c0-1.47-2.01-1.75-3.09-1.98
	c-3.14-0.64-6.23-1.57-6.23-5.43c0-1.65,0.64-3.09,1.9-4.14c1.29-1.08,2.81-1.44,4.43-1.44c3.09,0,5.61,1.08,6.69,4.14L95.75,189.3z
	"/>
<path d="M113.26,187.76h-4.43v14.16h-4.12v-14.16h-4.48v-3.5h13.03V187.76z"/>
<path d="M119.07,201.92h-4.12v-17.66h4.12V201.92z"/>
<path d="M131.27,191.1c-0.03-1.96-0.69-3.78-2.96-3.78c-2.91,0-3.19,3.81-3.19,5.95c0,2.42,0.28,5.53,3.4,5.53
	c1.93,0,2.83-1.62,3.06-3.32l4.02,0.26c-0.44,4.04-3.22,6.44-7.28,6.44c-5.25,0-7.8-4.27-7.8-9.09c0-4.89,2.63-9.09,7.93-9.09
	c4.43,0,6.69,2.57,7.16,6.82L131.27,191.1z"/>
<path d="M146.98,189.3c-0.52-1.49-1.47-2.08-3.04-2.08c-1.11,0-2.45,0.28-2.45,1.65c0,1.29,1.54,1.6,2.55,1.78
	c1.44,0.31,3.37,0.67,4.61,1.49c1.44,0.95,2.32,2.42,2.32,4.17c0,1.72-0.82,3.37-2.19,4.43c-1.42,1.11-3.35,1.44-5.12,1.44
	c-3.32,0-6.33-1.44-7.13-4.89l3.81-0.88c0.51,1.85,1.85,2.5,3.68,2.5c1.18,0,2.75-0.44,2.75-1.9c0-1.47-2.01-1.75-3.09-1.98
	c-3.14-0.64-6.23-1.57-6.23-5.43c0-1.65,0.64-3.09,1.9-4.14c1.29-1.08,2.81-1.44,4.43-1.44c3.09,0,5.61,1.08,6.69,4.14L146.98,189.3
	z"/>
<rect x="0.17" y="208.35" class="st0" width="150.24" height="4.96"/>
<path class="st0" d="M57,120.48c4.98,10.2,11.17,15.25,22.2,19.79C66.98,140.27,57,131.82,57,120.48z"/>
</svg>
