<svg width="128" height="40" viewBox="0 0 128 40" fill="none" xmlns="http://www.w3.org/2000/svg">
<path d="M37.2 34H30.56L29.36 39H22L29.36 16.2H38.76L45.8 39H38.4L37.2 34ZM33.84 21.12L31.48 29.56H36.24L34 21.12H33.84ZM65.005 38.24C64.0183 38.6667 62.8717 38.9733 61.565 39.16C60.2583 39.3467 59.045 39.44 57.925 39.44C54.2983 39.44 51.4583 38.4933 49.405 36.6C47.3517 34.7067 46.325 31.8 46.325 27.88C46.325 23.88 47.405 20.8933 49.565 18.92C51.725 16.92 54.765 15.92 58.685 15.92C60.5517 15.92 62.4983 16.1733 64.525 16.68C64.525 17.2133 64.4717 18.0133 64.365 19.08C64.2583 20.12 64.1517 20.8533 64.045 21.28H61.525C59.685 21.28 58.2317 21.32 57.165 21.4C56.125 21.4533 55.4983 21.5733 55.285 21.76C54.885 22.1333 54.5783 22.8933 54.365 24.04C54.1517 25.16 54.045 26.24 54.045 27.28C54.045 29.0933 54.2717 30.4933 54.725 31.48C55.1783 32.44 55.7517 33.08 56.445 33.4C57.1117 33.72 58.2183 33.88 59.765 33.88C60.9917 33.88 62.5917 33.7733 64.565 33.56L65.005 38.24ZM78.7528 39.52C74.7795 39.52 71.7928 38.5867 69.7928 36.72C67.8195 34.8267 66.8328 31.8 66.8328 27.64C66.8328 23.56 67.9261 20.5867 70.1128 18.72C72.2995 16.8533 75.1928 15.92 78.7928 15.92C86.3661 15.92 90.1528 19.6933 90.1528 27.24C90.1528 31.0533 89.2195 34.0533 87.3528 36.24C85.5128 38.4267 82.6461 39.52 78.7528 39.52ZM78.5928 34.8C79.3395 34.8 79.9661 34.68 80.4728 34.44C80.9795 34.1733 81.3795 33.72 81.6728 33.08C82.2328 31.9867 82.5128 30.2 82.5128 27.72C82.5128 25.2933 82.2328 23.5333 81.6728 22.44C81.1128 21.32 80.0861 20.7333 78.5928 20.68C78.0328 20.68 77.4461 20.7467 76.8328 20.88C76.2461 20.9867 75.8728 21.1467 75.7128 21.36C75.3928 21.7333 75.1395 22.5333 74.9528 23.76C74.7928 24.96 74.7128 26.28 74.7128 27.72C74.7128 29.96 74.9261 31.6 75.3528 32.64C75.6461 33.4133 76.0595 33.9733 76.5928 34.32C77.1261 34.64 77.7928 34.8 78.5928 34.8ZM100.016 29.8V39H93.3359V16.2H100.096L106.136 25.4C107.043 26.76 107.736 27.9067 108.216 28.84H108.336V25V16.2H114.976V39H108.176L101.976 29.4L100.176 26.68H100.056L100.016 29.8Z" fill="white"/>
<path d="M43.0121 28.4195L44.9322 34.4612L0.941854 33.5375L1.06781 27.5388L43.0121 28.4195Z" fill="#F21818"/>
</svg>
